<?xml version="1.0" standalone="no"?>
 <!DOCTYPE svg PUBLIC "-//W3C//DTD SVG 1.1//EN" 
 "http://www.w3.org/Graphics/SVG/1.1/DTD/svg11.dtd"> 
<svg xmlns="http://www.w3.org/2000/svg" version="1.1" 
    width="16.8046cm" height="9.20496cm" viewBox="0 0 66160 36240 ">
<title>SVG Picture created as 2x1_big_switch_top-Edge_Cuts.svg date 2020/01/16 18:38:25 </title>
  <desc>Picture generated by PCBNEW </desc>
<g style="fill:#000000; fill-opacity:1;stroke:#000000; stroke-opacity:1;
stroke-linecap:round; stroke-linejoin:round; "
 transform="translate(0 0) scale(1 1)">
</g>
<g style="fill:#000000; fill-opacity:0.0; 
stroke:#000000; stroke-width:-0.000393701; stroke-opacity:1; 
stroke-linecap:round; stroke-linejoin:round;">
</g>
<g style="fill:#000000; fill-opacity:0.0; 
stroke:#000000; stroke-width:19.685; stroke-opacity:1; 
stroke-linecap:round; stroke-linejoin:round;">
<path d="M66151 34261
L66151 1978
" />
<path d="M1978 36230
L64183 36230
" />
<path d="M9 1978
L9 34261
" />
<path d="M64183 9
L1978 9
" />
<path d="M66151.6 1978.35 A1968.5 1968.5 0.0 0 0 64183.1 9.84291 " />
<path d="M64183.1 36230.3 A1968.5 1968.5 0.0 0 0 66151.6 34261.8 " />
<path d="M9.84291 34261.8 A1968.5 1968.5 0.0 0 0 1978.35 36230.3 " />
<path d="M1978.35 9.84291 A1968.5 1968.5 0.0 0 0 9.84291 1978.35 " />
<circle cx="64183.1" cy="34261.8" r="787.402" /> 
<circle cx="33080.7" cy="34261.8" r="787.402" /> 
<circle cx="1978.35" cy="34261.8" r="787.402" /> 
<circle cx="1978.35" cy="1978.35" r="787.402" /> 
<circle cx="64183.1" cy="1978.35" r="787.402" /> 
<circle cx="33080.7" cy="1978.35" r="787.402" /> 
</g>
<g style="fill:#000000; fill-opacity:0.0; 
stroke:#000000; stroke-width:47.2441; stroke-opacity:1; 
stroke-linecap:round; stroke-linejoin:round;">
<path d="M59064 7096
L37017 7096
" />
<path d="M37017 7096
L37017 29143
" />
<path d="M37017 29143
L59064 29143
" />
<path d="M59064 29143
L59064 7096
" />
<path d="M29143 29143
L29143 7096
" />
<path d="M7096 29143
L29143 29143
" />
<path d="M7096 7096
L7096 29143
" />
<path d="M29143 7096
L7096 7096
" />
<g >
</g>
<g >
</g>
<g >
</g>
</g> 
</svg>
